<?xml version="1.0" encoding="UTF-8" standalone="no"?>
<svg
   width="600"
   height="400"
   viewBox="0 0 9365.6249 5718.75"
   version="1.1"
   id="svg136"
   sodipodi:docname="Machine_2.svg"
   inkscape:version="1.1.1 (3bf5ae0d25, 2021-09-20)"
   xmlns:inkscape="http://www.inkscape.org/namespaces/inkscape"
   xmlns:sodipodi="http://sodipodi.sourceforge.net/DTD/sodipodi-0.dtd"
   xmlns="http://www.w3.org/2000/svg"
   xmlns:svg="http://www.w3.org/2000/svg"
   xmlns:rexsvg="http://www.rexcontrols.com/rexsvg">
  <defs
     id="defs140">
    <path
       id="SVGID_1_-1"
       d="m 10.248,56.151 c 0,-25.375 20.571,-45.945 45.945,-45.945 25.376,0 45.945,20.57 45.945,45.945 0,25.376 -20.568,45.947 -45.945,45.947 -25.374,0 -45.945,-20.571 -45.945,-45.947 M 52.829,0 C 24.171,1.691 1.281,24.837 0,53.603 v 5.096 c 1.331,29.885 25.98,53.702 56.193,53.702 31.067,0 56.25,-25.184 56.25,-56.25 C 112.443,26.216 89.055,1.741 59.556,0 Z" />
    <rect
       id="SVGID_4_"
       width="112.5"
       height="112.5"
       x="0"
       y="0" />
    <linearGradient
       id="SVGID_1_"
       gradientUnits="userSpaceOnUse"
       x1="0"
       y1="56.25"
       x2="94.593803"
       y2="56.25"
       gradientTransform="matrix(6.1953192,0,0,5.5968402,4216.3852,3751.718)">
      <stop
         offset="0"
         style="stop-color:#383838"
         id="stop331" />
      <stop
         offset="0.5"
         style="stop-color:#ECECEC"
         id="stop333" />
      <stop
         offset="0.57"
         style="stop-color:#D9D9D9"
         id="stop335" />
      <stop
         offset="0.71"
         style="stop-color:#A8A8A8"
         id="stop337" />
      <stop
         offset="0.92"
         style="stop-color:#5A5A5A"
         id="stop339" />
      <stop
         offset="1"
         style="stop-color:#383838"
         id="stop341" />
    </linearGradient>
    <linearGradient
       id="SVGID_2_"
       gradientUnits="userSpaceOnUse"
       x1="22.9727"
       y1="19.144501"
       x2="71.507797"
       y2="19.144501"
       gradientTransform="matrix(6.1953192,0,0,5.5968402,4216.3852,3751.718)">
      <stop
         offset="0"
         style="stop-color:#383838"
         id="stop346" />
      <stop
         offset="0.5"
         style="stop-color:#ECECEC"
         id="stop348" />
      <stop
         offset="0.57"
         style="stop-color:#D9D9D9"
         id="stop350" />
      <stop
         offset="0.71"
         style="stop-color:#A8A8A8"
         id="stop352" />
      <stop
         offset="0.92"
         style="stop-color:#5A5A5A"
         id="stop354" />
      <stop
         offset="1"
         style="stop-color:#383838"
         id="stop356" />
    </linearGradient>
    <radialGradient
       id="SVGID_3_"
       cx="47.296902"
       cy="47.241199"
       r="34.0378"
       gradientTransform="matrix(-2.7080601e-7,-5.5968402,7.434383,-2.9357481e-7,4158.195,4280.8326)"
       gradientUnits="userSpaceOnUse">
      <stop
         offset="0"
         style="stop-color:#ECECEC"
         id="stop361" />
      <stop
         offset="0.14"
         style="stop-color:#DDDDDD"
         id="stop363" />
      <stop
         offset="0.4"
         style="stop-color:#B8B8B8"
         id="stop365" />
      <stop
         offset="0.75"
         style="stop-color:#7C7C7C"
         id="stop367" />
      <stop
         offset="1"
         style="stop-color:#4D4D4D"
         id="stop369" />
    </radialGradient>
  </defs>
  <sodipodi:namedview
     id="namedview138"
     pagecolor="#ffffff"
     bordercolor="#666666"
     borderopacity="1.0"
     inkscape:pageshadow="2"
     inkscape:pageopacity="0.0"
     inkscape:pagecheckerboard="0"
     showgrid="false"
     inkscape:zoom="3.0935922"
     inkscape:cx="359.6143"
     inkscape:cy="281.71134"
     inkscape:window-width="1366"
     inkscape:window-height="745"
     inkscape:window-x="-8"
     inkscape:window-y="-8"
     inkscape:window-maximized="1"
     inkscape:current-layer="svg136"
     objecttolerance="1"
     guidetolerance="1"
     gridtolerance="1"
     width="600px">
    <inkscape:grid
       type="xygrid"
       id="grid1399"
       empspacing="5"
       spacingx="7.8046875"
       snapvisiblegridlinesonly="false"
       spacingy="7.1484375" />
  </sodipodi:namedview>
  <g
     id="g209"
     transform="matrix(6.9636536,0,0,5.1594801,1049.3147,925.24791)">
    <path
       style="fill:#cccccc;stroke:#4c4c4c;stroke-width:2"
       d="m 583,207 h 156 v 42 H 583 Z"
       id="path2" />
    <path
       style="fill:#669999;stroke:#4c4c4c;stroke-width:2"
       d="m 42,811 h 914 v 82 H 42 Z"
       id="path4" />
    <path
       style="fill:#003333;stroke:#4c4c4c;stroke-width:2"
       d="M 20,915 H 978 V 893 H 20 Z"
       id="path6" />
    <path
       style="fill:#e5e5e5"
       d="M 42,811 0,683 20,249 h 958 l 21,434 -43,128 z"
       id="path8" />
    <path
       style="fill:#e0e0e0"
       d="M 42,811 0,683 9,467 982,357 999,683 956,811 Z"
       id="path10" />
    <path
       style="fill:#dbdbdb"
       d="M 42,811 0,683 5,575 989,467 999,683 956,811 Z"
       id="path12" />
    <path
       style="fill:#d6d6d6"
       d="M 42,811 0,683 993,575 l 6,108 -43,128 z"
       id="path14" />
    <path
       style="fill:none;stroke:#4c4c4c;stroke-width:2"
       d="M 42,811 0,683 20,249 h 958 l 21,434 -43,128 H 42"
       id="path16" />
    <path
       style="fill:#336666"
       d="M 249,249 H 749 V 665 H 249 Z"
       id="path18" />
    <path
       style="fill:#cccccc;stroke:#4c4c4c;stroke-width:2"
       d="M 311,249 H 687 V 665 H 311 Z"
       id="path20" />
    <path
       style="fill:none;stroke:#4c4c4c;stroke-width:2"
       d="M 249,249 H 749 V 665 H 249 V 249"
       id="path22" />
    <path
       style="fill:#333333;stroke:#4c4c4c;stroke-width:2"
       d="m 311,623 h 376 v 42 H 311 Z"
       id="path24" />
    <path
       style="fill:#7f7f7f;stroke:#4c4c4c;stroke-width:2"
       d="M 311,623 H 687 V 603 H 311 Z"
       id="path26" />
    <path
       style="fill:#e5e5e5;stroke:#4c4c4c;stroke-width:2"
       d="m 311,603 42,-22 h 292 l 42,22 z"
       id="path28" />
    <path
       style="fill:#e5e5e5"
       d="M 415,0 H 583 V 331 H 415 Z"
       id="path30" />
    <path
       style="fill:#d9d9d9"
       d="M 415,0 H 583 V 81 H 415 Z"
       id="path32" />
    <path
       style="fill:#cccccc"
       d="M 415,0 H 583 V 61 H 415 Z"
       id="path34" />
    <path
       style="fill:#bfbfbf"
       d="M 415,0 H 583 V 39 H 415 Z"
       id="path36" />
    <path
       style="fill:#b2b2b2"
       d="M 415,0 H 583 V 20 H 415 Z"
       id="path38" />
    <path
       style="fill:#003333"
       d="m 707,561 h 22 v 82 h -22 z"
       id="path40" />
    <path
       style="fill:#003333"
       d="m 269,561 h 22 v 82 h -22 z"
       id="path42" />
    <path
       style="fill:#003333"
       d="m 183,603 h 46 v 30 h -46 z"
       id="path44" />
    <path
       style="fill:#003333"
       d="m 125,603 h 44 v 30 h -44 z"
       id="path46" />
    <path
       style="fill:#003333"
       d="m 73,603 h 44 v 30 H 73 Z"
       id="path48" />
    <path
       style="fill:#003333"
       d="m 20,603 h 45 v 30 H 20 Z"
       id="path50" />
    <path
       style="fill:#003333"
       d="m 183,567 h 46 v 30 h -46 z"
       id="path52" />
    <path
       style="fill:#003333"
       d="m 125,567 h 44 v 30 h -44 z"
       id="path54" />
    <path
       style="fill:#003333"
       d="m 73,567 h 44 v 30 H 73 Z"
       id="path56" />
    <path
       style="fill:#003333"
       d="m 183,529 h 46 v 30 h -46 z"
       id="path58" />
    <path
       style="fill:#003333"
       d="m 125,529 h 44 v 30 h -44 z"
       id="path60" />
    <path
       style="fill:#003333"
       d="m 183,493 h 46 v 28 h -46 z"
       id="path62" />
    <path
       style="fill:none;stroke:#ffffff;stroke-width:2"
       d="M 603,353 V 561 H 395"
       id="path64" />
    <path
       style="fill:none;stroke:#999999;stroke-width:2"
       d="M 603,353 H 395 v 208"
       id="path66" />
    <path
       style="fill:#7f7f7f"
       d="m 457,415 v -84 h 84 v 84 z"
       id="path68" />
    <path
       style="fill:#999999"
       d="m 463,415 v -84 h 72 v 84 z"
       id="path70" />
    <path
       style="fill:#b2b2b2"
       d="m 471,415 v -84 h 56 v 84 z"
       id="path72" />
    <path
       style="fill:#cccccc"
       d="m 481,415 v -84 h 36 v 84 z"
       id="path74" />
    <path
       style="fill:#e5e5e5"
       d="m 487,415 v -84 h 24 v 84 z"
       id="path76" />
    <path
       style="fill:#ffffff"
       d="m 493,415 v -84 h 12 v 84 z"
       id="path78" />
    <path
       style="fill:none;stroke:#4c4c4c;stroke-width:2"
       d="m 457,415 v -84 h 84 v 84 h -84"
       id="path80" />
    <path
       style="fill:#cccccc"
       d="M 291,61 H 415 V 249 H 291 Z"
       id="path82" />
    <path
       style="fill:#c7c7c7"
       d="M 291,193 415,116 V 249 H 291 Z"
       id="path84" />
    <path
       style="fill:#c2c2c2"
       d="M 291,201 415,123 V 249 H 291 Z"
       id="path86" />
    <path
       style="fill:#bdbdbd"
       d="M 291,213 415,135 V 249 H 291 Z"
       id="path88" />
    <path
       style="fill:#b2b2b2;stroke:#4c4c4c;stroke-width:2"
       d="m 311,269 h 62 v 42 h -62 z"
       id="path90" />
    <path
       style="fill:#b2b2b2;stroke:#4c4c4c;stroke-width:2"
       d="m 311,311 h 42 v 52 h -42 z"
       id="path92" />
    <path
       style="fill:#ffcc00"
       d="m 457,831 h 499 v 22 H 457 Z"
       id="path94" />
    <path
       style="fill:#ffcc00"
       d="m 61,831 h 376 v 22 H 61 Z"
       id="path96" />
    <path
       style="fill:#ffcc00"
       d="m 707,269 h 22 v 20 h -22 z"
       id="path98" />
    <path
       style="fill:#ffcc00"
       d="m 425,279 h 64 v 42 h -64 z"
       id="path100" />
    <path
       style="fill:#ffcc00"
       d="m 321,341 h 32 v 22 h -32 z"
       id="path102" />
    <path
       style="fill:#ffcc00"
       d="m 229,581 h 20 v 22 h -20 z"
       id="path104" />
    <path
       style="fill:#669999;stroke:#4c4c4c;stroke-width:2"
       d="M 769,331 H 937 V 499 H 769 Z"
       id="path106" />
    <path
       style="fill:#cccccc;stroke:#4c4c4c;stroke-width:2"
       d="m 843,551 h -62 l -12,-52 h 84 z"
       id="path108" />
    <path
       style="fill:#cccccc;stroke:#4c4c4c;stroke-width:2"
       d="m 781,279 h 62 l 10,52 h -84 z"
       id="path110" />
    <path
       style="fill:none;stroke:#003333;stroke-width:2"
       d="M 61,321 H 229"
       id="path112" />
    <path
       style="fill:none;stroke:#003333;stroke-width:2"
       d="M 61,341 H 229"
       id="path114" />
    <path
       style="fill:none;stroke:#003333;stroke-width:2"
       d="M 781,499 V 331"
       id="path116" />
    <path
       style="fill:#003333"
       d="m 791,341 h 84 v 74 h -84 z"
       id="path118" />
    <path
       style="fill:none;stroke:#4c4c4c;stroke-width:2"
       d="m 791,415 v -74 h 82"
       id="path120" />
    <path
       style="fill:none;stroke:#99cccc;stroke-width:2"
       d="m 873,341 v 74 h -82"
       id="path122" />
    <path
       style="fill:none;stroke:#99cccc;stroke-width:2"
       d="M 791,435 H 925"
       id="path124" />
    <path
       style="fill:none;stroke:#99cccc;stroke-width:2"
       d="m 833,435 v 52"
       id="path126" />
    <path
       style="fill:none;stroke:#99cccc;stroke-width:2"
       d="m 895,435 v 52"
       id="path128" />
    <path
       style="fill:none;stroke:#4c4c4c;stroke-width:2"
       d="M 415,0 H 583 V 331 H 415 V 0"
       id="path130" />
    <path
       style="fill:none;stroke:#4c4c4c;stroke-width:2"
       d="M 291,61 H 415 V 249 H 291 V 61"
       id="path132" />
    <path
       style="fill:#e5e5e5;stroke:#4c4c4c;stroke-width:2"
       d="M 311,269 H 687 V 249 H 311 Z"
       id="path134" />
  </g>
  <g
     id="g536"
     transform="matrix(7.7749578,0,0,7.2804594,3815.1511,4291.4556)">
    <path
       style="fill:#7f7f7f;stroke:#4c4c4c;stroke-width:2"
       d="M 29,59 H 441 V 88 H 29 Z"
       id="path515" />
    <path
       style="fill:#7f7f7f;stroke:#4c4c4c;stroke-width:2"
       d="M 36,11 15,32 56,73 77,52 81,48 84,42 85,37 86,31 85,26 84,20 81,15 77,11 73,7 68,4 62,3 57,2 51,3 46,4 40,7 Z"
       id="path517" />
    <circle
       style="fill:#b2b2b2;stroke:#4c4c4c;stroke-width:2"
       cx="441"
       cy="58"
       r="29"
       id="circle519" />
    <circle
       style="fill:#b2b2b2;stroke:#4c4c4c;stroke-width:2"
       cx="29"
       cy="58"
       r="29"
       id="circle521" />
    <path
       style="fill:#7f7f7f;stroke:#4c4c4c;stroke-width:2"
       d="m 491,50 4,-5 3,-5 1,-5 1,-6 L 498,18 492,8 482,2 471,0 H 59 l -6,1 -5,1 -5,3 -5,3 -29,30 4,-4 5,-3 6,-1 5,-1 h 412 l 6,1 5,1 6,3 4,4 4,4 3,5 1,6 1,6 -1,7 -3,7 -5,6 -6,5 z"
       id="path523" />
  </g>
  <g
     id="fg">
    <path
       fill="url(#SVGID_1_)"
       d="m 4216.3852,4381.3625 v -315.1357 l 142.3251,-100.2114 V 3751.718 h 300.6898 v 214.2918 l 143.0251,100.2114 v 315.1413 h -586.04"
       id="path344"
       style="fill:url(#SVGID_1_);stroke-width:5.88848" />
    <path
       fill="url(#SVGID_2_)"
       d="M 4358.7103,3966.0154 V 3751.718 h 300.6898 v 214.2918"
       id="path359"
       style="fill:url(#SVGID_2_);stroke-width:5.88848" />
    <path
       fill="url(#SVGID_3_)"
       d="m 4216.3852,4066.2268 142.3251,-100.2114 h 300.6898 l 143.0251,100.2114"
       id="path372"
       style="fill:url(#SVGID_3_);stroke-width:5.88848" />
  </g>
  <g
     transform="matrix(51.523247,0,0,46.509289,6311.4128,-419.65247)"
     id="layer1-0"
     inkscape:label="Livello 1">
    <rect
       style="fill:#0000ff;stroke:none;stroke-width:0.254298"
       id="rect2991-0"
       width="34.660416"
       height="14.552083"
       x="17.443602"
       y="84.860855"
       rx="1.8773369" />
    <rect
       inkscape:label=""
       rexsvg:tag="textbox"
       rx="3.6723204"
       ry="3.0821497"
       y="90.395531"
       x="18.373404"
       height="7.9443727"
       width="32.815208"
       id="alarm-77"
       style="fill:#333333;fill-opacity:1;fill-rule:nonzero;stroke:#00ff00;stroke-width:0.522293;stroke-linecap:butt;stroke-linejoin:round;stroke-miterlimit:4;stroke-dasharray:none;stroke-dashoffset:0;stroke-opacity:1" />
    <text
       inkscape:label=""
       style="font-size:5.42001px;font-family:Tahoma;text-align:end;text-anchor:end;fill:#00ffff;stroke-width:0.33875"
       x="41.321472"
       y="91.913193"
       id="output"
       transform="scale(0.95087635,1.0516615)">0</text>
    <text
       inkscape:label=""
       id="R802_PT_P19_unit"
       y="87.471046"
       x="45.332966"
       style="font-weight:bold;font-size:4.34663px;font-family:Tahoma;fill:#ffffff;stroke-width:0.271664"
       transform="scale(0.90719051,1.1023043)">Pcs</text>
    <text
       inkscape:label=""
       id="tag-08"
       y="88.778542"
       x="19.124393"
       style="font-size:3.94322px;font-family:Tahoma;fill:#ffffff;stroke-width:0.246451">Output</text>
  </g>
  <g
     transform="matrix(51.523247,0,0,46.509289,-263.5606,-3858.4856)"
     id="layer1-0-6"
     inkscape:label="Livello 1">
    <rect
       style="fill:#008080;stroke:none;stroke-width:0.290302"
       id="rect2991-0-5"
       width="45.170422"
       height="14.552083"
       x="17.443602"
       y="84.860855"
       rx="2.4465628" />
    <rect
       inkscape:label=""
       rexsvg:tag="textbox"
       rx="4.7699866"
       ry="3.0548925"
       y="90.430656"
       x="18.408527"
       height="7.8741159"
       width="42.62376"
       id="alarm-77-5"
       style="fill:#333333;fill-opacity:1;fill-rule:nonzero;stroke:#00ff00;stroke-width:0.592616;stroke-linecap:butt;stroke-linejoin:round;stroke-miterlimit:4;stroke-dasharray:none;stroke-dashoffset:0;stroke-opacity:1" />
    <text
       inkscape:label=""
       id="R802_PT_P19_unit-1"
       y="87.280708"
       x="24.480843"
       style="font-weight:bold;font-size:4.34663px;font-family:Tahoma;fill:#ffffff;stroke-width:0.271664"
       transform="scale(0.90719051,1.1023043)">-</text>
    <text
       inkscape:label=""
       id="tag-08-3"
       y="88.778542"
       x="19.124393"
       style="font-size:3.94322px;font-family:Tahoma;fill:#ffffff;stroke-width:0.246451">Machine Name</text>
  </g>
  <g
     transform="matrix(51.523247,0,0,46.509289,-252.74773,-3077.8245)"
     id="layer1-0-6-8"
     inkscape:label="Livello 1">
    <rect
       style="fill:#808000;stroke:none;stroke-width:0.290302"
       id="rect2991-0-5-6"
       width="45.170422"
       height="14.552083"
       x="17.443602"
       y="84.860855"
       rx="2.4465628" />
    <rect
       inkscape:label=""
       rexsvg:tag="textbox"
       rx="4.7699866"
       ry="3.0548925"
       y="90.430656"
       x="18.408527"
       height="7.8741159"
       width="42.62376"
       id="alarm-77-5-1"
       style="fill:#333333;fill-opacity:1;fill-rule:nonzero;stroke:#00ff00;stroke-width:0.592616;stroke-linecap:butt;stroke-linejoin:round;stroke-miterlimit:4;stroke-dasharray:none;stroke-dashoffset:0;stroke-opacity:1" />
    <text
       inkscape:label=""
       id="R802_PT_P19_unit-1-6"
       y="87.280708"
       x="24.480843"
       style="font-weight:bold;font-size:4.34663px;font-family:Tahoma;fill:#ffffff;stroke-width:0.271664"
       transform="scale(0.90719051,1.1023043)">-</text>
    <text
       inkscape:label=""
       id="tag-08-3-3"
       y="88.778542"
       x="19.124393"
       style="font-size:3.94322px;font-family:Tahoma;fill:#ffffff;stroke-width:0.246451">Product Name</text>
  </g>
  <g
     transform="matrix(51.523247,0,0,46.509289,6288.3034,-3251.0214)"
     id="layer1-0-9"
     inkscape:label="Livello 1">
    <rect
       style="fill:#008000;stroke:none;stroke-width:0.254298"
       id="rect2991-0-9"
       width="34.660416"
       height="14.552083"
       x="17.443602"
       y="84.860855"
       rx="1.8773369" />
    <rect
       inkscape:label=""
       rexsvg:tag="textbox"
       rx="3.6723204"
       ry="3.0821497"
       y="90.395531"
       x="18.373404"
       height="7.9443727"
       width="32.815208"
       id="alarm-77-4"
       style="fill:#333333;fill-opacity:1;fill-rule:nonzero;stroke:#00ff00;stroke-width:0.522293;stroke-linecap:butt;stroke-linejoin:round;stroke-miterlimit:4;stroke-dasharray:none;stroke-dashoffset:0;stroke-opacity:1" />
    <text
       inkscape:label=""
       style="font-size:5.42001px;font-family:Tahoma;text-align:end;text-anchor:end;fill:#00ffff;stroke-width:0.33875"
       x="41.321472"
       y="91.913193"
       id="ok"
       transform="scale(0.95087635,1.0516615)">0</text>
    <text
       inkscape:label=""
       id="R802_PT_P19_unit-5"
       y="87.471046"
       x="45.332966"
       style="font-weight:bold;font-size:4.34663px;font-family:Tahoma;fill:#ffffff;stroke-width:0.271664"
       transform="scale(0.90719051,1.1023043)">Pcs</text>
    <text
       inkscape:label=""
       id="tag-08-7"
       y="88.778542"
       x="19.124393"
       style="font-size:3.94322px;font-family:Tahoma;fill:#ffffff;stroke-width:0.246451">OK</text>
  </g>
  <g
     transform="matrix(51.523247,0,0,46.509289,6288.3034,-2479.0835)"
     id="layer1-0-9-1"
     inkscape:label="Livello 1">
    <rect
       style="fill:#d40000;stroke:none;stroke-width:0.254298"
       id="rect2991-0-9-0"
       width="34.660416"
       height="14.552083"
       x="17.443602"
       y="84.860855"
       rx="1.8773369" />
    <rect
       inkscape:label=""
       rexsvg:tag="textbox"
       rx="3.6723204"
       ry="3.0821497"
       y="90.395531"
       x="18.373404"
       height="7.9443727"
       width="32.815208"
       id="alarm-77-4-0"
       style="fill:#333333;fill-opacity:1;fill-rule:nonzero;stroke:#00ff00;stroke-width:0.522293;stroke-linecap:butt;stroke-linejoin:round;stroke-miterlimit:4;stroke-dasharray:none;stroke-dashoffset:0;stroke-opacity:1" />
    <text
       inkscape:label=""
       style="font-size:5.42001px;font-family:Tahoma;text-align:end;text-anchor:end;fill:#00ffff;stroke-width:0.33875"
       x="41.321472"
       y="91.913193"
       id="defect"
       transform="scale(0.95087635,1.0516615)">0</text>
    <text
       inkscape:label=""
       id="R802_PT_P19_unit-5-5"
       y="87.471046"
       x="45.332966"
       style="font-weight:bold;font-size:4.34663px;font-family:Tahoma;fill:#ffffff;stroke-width:0.271664"
       transform="scale(0.90719051,1.1023043)">Pcs</text>
    <text
       inkscape:label=""
       id="tag-08-7-1"
       y="88.778542"
       x="19.124393"
       style="font-size:3.94322px;font-family:Tahoma;fill:#ffffff;stroke-width:0.246451">Defect</text>
  </g>
  <g
     id="pulley2">
    <path
       style="fill:#808080;fill-rule:evenodd;stroke-width:0.442167"
       d="m 7244.4099,4496.7575 h 11.0544 l 11.0544,0.8844 11.0544,1.3264 11.0544,1.7687 10.6122,2.6529 10.17,3.0951 10.6123,3.5373 9.7278,3.9795 9.7279,4.4216 9.7278,4.8638 9.2857,5.3058 8.8435,5.7482 8.8435,6.1902 8.4014,6.6324 7.9591,6.6324 7.517,7.5167 7.517,7.5166 7.0748,7.9589 6.6327,8.4011 6.1904,8.8432 5.7482,8.8432 5.3061,9.2854 4.864,9.7275 4.4218,9.7275 3.9796,10.1696 3.5373,10.1698 3.0953,10.6117 2.2108,10.6119 2.2109,10.6119 1.3265,11.054 0.8844,11.4961 0.4421,11.054 -0.4421,11.4961 -0.8844,11.054 -1.3265,11.054 -2.2109,11.054 -2.2108,10.6119 -3.0953,10.6119 -3.5373,10.1696 -3.9796,10.1696 -4.4218,9.7275 -4.864,9.2854 -5.3061,9.2854 -5.7482,9.2853 -6.1904,8.4011 -6.6327,8.4011 -7.0748,7.9588 -7.517,7.9589 -7.517,7.0745 -7.9591,7.0746 -8.4014,6.6324 -8.8435,6.1903 -8.8435,5.748 -9.2857,5.306 -9.7278,4.8637 -9.7279,4.4215 -9.7278,3.9795 -10.6123,3.0951 -10.17,3.0952 -10.6122,2.653 -11.0544,1.7686 -11.0544,1.3264 -11.0544,0.8843 -11.0544,0.4422 -11.4965,-0.4422 -11.0544,-0.8843 -11.0544,-1.3264 -11.0543,-1.7686 -10.6123,-2.653 -10.6122,-3.0952 -10.17,-3.0951 -10.1701,-3.9795 -9.7278,-4.4215 -9.7279,-4.8637 -9.2856,-5.306 -8.8436,-5.748 -8.4013,-6.1903 -8.4014,-6.6324 -7.959,-7.0746 -7.9592,-7.0745 -7.0749,-7.9589 -7.0748,-7.9588 -6.6326,-8.4011 -6.1904,-8.4011 -5.7483,-9.2853 -5.3062,-9.2854 -4.8638,-9.2854 -4.4218,-9.7275 -3.9796,-10.1696 -3.0952,-10.1696 -3.0953,-10.6119 -2.653,-10.6119 -1.7687,-11.054 -1.3265,-11.054 -0.8844,-11.054 v -11.4961 -11.054 l 0.8844,-11.4961 1.3265,-11.054 1.7687,-10.6119 2.653,-10.6119 3.0953,-10.6117 3.0952,-10.1698 3.9796,-10.1696 4.4218,-9.7275 4.8638,-9.7275 5.3062,-9.2854 5.7483,-8.8432 6.1904,-8.8432 6.6326,-8.4011 7.0748,-7.9589 7.0749,-7.5166 7.9592,-7.5167 7.959,-6.6324 8.4014,-6.6324 8.4013,-6.1902 8.8436,-5.7482 9.2856,-5.3058 9.7279,-4.8638 9.7278,-4.4216 10.1701,-3.9795 10.17,-3.5373 10.6122,-3.0951 10.6123,-2.6529 11.0543,-1.7687 11.0544,-1.3264 11.0544,-0.8844 z m 1.7688,206.9308 h -2.6531 l -2.6531,0.8844 -2.2108,1.3265 -2.2109,1.7686 -1.7687,2.2107 -1.3265,2.2109 -0.8844,2.6529 v 2.653 2.653 l 0.8844,2.6529 1.3265,2.2108 1.7687,2.2108 2.2109,1.7686 2.2108,0.8844 2.6531,0.8842 2.6531,0.4423 2.653,-0.4423 2.653,-0.8842 2.211,-0.8844 2.2108,-1.7686 1.7687,-2.2108 0.8844,-2.2108 0.8843,-2.6529 0.4422,-2.653 -0.4422,-2.653 -0.8843,-2.6529 -0.8844,-2.2109 -1.7687,-2.2107 -2.2108,-1.7686 -2.211,-1.3265 -2.653,-0.8844 z m -41.5646,-16.3599 4.4218,-5.3059 5.3061,-4.8637 5.3062,-3.5374 5.7482,-3.0951 5.7483,-1.7686 6.1904,-1.7687 6.1905,-0.4421 h 6.1905 l 5.7482,0.4421 6.1905,1.3265 5.3061,1.7687 5.3061,2.653 4.864,2.653 3.9795,3.5372 3.5374,3.9794 2.6531,4.4216 129.5574,-81.3574 -3.0952,-4.8637 -3.5375,-4.8638 -3.5374,-4.8637 -3.5374,-4.8638 -3.9796,-4.8638 -3.9796,-4.4215 -4.4217,-4.4217 -4.4217,-4.4216 -4.864,-4.4216 -4.4217,-3.9794 -5.3062,-3.9795 -4.8638,-3.9794 -5.3062,-3.5372 -5.3061,-3.5374 -5.306,-3.5372 -5.7484,-3.0952 -5.7482,-3.0951 -5.7483,-3.0951 -5.7483,-2.6529 -6.1905,-2.653 -5.7482,-2.653 -6.1905,-2.2107 -6.1904,-1.7687 -6.1905,-1.7686 -6.6327,-1.7686 -6.1904,-1.3265 -6.6326,-1.3265 -6.6327,-1.3265 -6.1904,-0.4421 -6.6326,-0.8844 h -6.6327 l -6.6326,-0.4421 -6.6326,0.4421 h -6.6327 l -6.6326,0.8844 -6.6326,0.4421 -6.1905,1.3265 -6.6326,0.8842 -6.1904,1.3265 -6.1906,1.7687 -6.6326,1.7686 -5.7482,2.2109 -6.1905,1.7686 -6.1904,2.653 -5.7483,2.6529 -5.7483,2.653 -5.7483,2.653 -5.306,3.0951 -5.7484,3.0951 -5.3061,3.5373 -5.3061,3.5372 -4.8639,3.5373 -4.864,3.9795 -4.8638,3.9793 -4.864,3.9795 -4.4217,4.4217 -4.4218,4.4215 -4.4218,4.4216 -3.9796,4.8637 -3.9795,4.8638 -3.5374,4.8637 -3.9796,4.8638 -3.0952,4.8637 -3.5374,5.306 z m 90.646,16.3599 1.3266,5.7481 0.4422,5.7481 v 5.3059 l -0.4422,5.3059 -0.8844,5.306 -1.3266,4.8637 -1.7686,4.8638 -2.2109,4.4216 -3.0952,3.9794 -3.5374,3.9795 -3.5374,3.5372 -4.4218,3.0952 -4.4218,2.6528 -5.306,2.2109 -5.3062,2.2108 -6.1904,1.3265 v 150.3343 l 6.1904,-0.4421 5.7483,-0.4422 6.1905,-0.4422 5.7482,-0.8843 6.1905,-1.3264 5.7483,-0.8844 6.1905,-1.7686 5.7482,-1.3265 6.1905,-1.7686 5.7482,-2.2108 6.1906,-2.2108 5.7482,-2.2108 5.7483,-2.653 5.7482,-2.653 5.7484,-2.6529 5.306,-3.0951 5.7483,-3.0951 5.3061,-3.5373 5.3061,-3.5373 5.3062,-3.9794 5.306,-3.5373 4.864,-4.4216 4.8639,-3.9795 4.864,-4.4215 4.8638,-4.4216 4.4218,-4.8638 4.4218,-4.8637 3.9796,-5.306 3.9795,-4.8638 3.9796,-5.3059 3.5374,-5.7481 3.5374,-5.748 3.5374,-5.7481 3.0952,-6.1903 2.6531,-6.1902 2.6531,-5.748 2.2108,-6.1903 2.2109,-6.6323 2.2109,-6.1903 1.7687,-6.1902 1.3266,-6.1903 1.7686,-6.6324 0.8844,-6.1902 0.8844,-6.1903 0.8842,-6.6323 0.4422,-6.1903 0.4422,-6.1902 v -6.6324 -6.1903 l -0.4422,-6.1902 -0.4422,-6.1903 -0.4422,-6.1902 -0.8842,-6.1903 -0.8844,-6.1902 -1.3266,-6.1903 -1.3264,-5.748 -1.7688,-6.1902 -1.7686,-5.7481 -1.7688,-6.1903 -2.2108,-5.748 -2.2109,-5.306 -2.6531,-5.748 -2.653,-5.7481 -2.6531,-5.3059 z m -59.2515,64.5554 -5.3061,-1.7687 -4.8639,-2.2107 -4.864,-2.653 -4.4217,-2.653 -3.9796,-3.5373 -3.9796,-3.5372 -3.5374,-3.9795 -2.653,-3.9794 -2.653,-4.4216 -2.211,-4.8638 -1.7686,-4.8637 -0.8844,-4.8638 -0.4422,-5.306 v -5.3058 l 0.8844,-5.3059 1.7686,-5.306 -132.2103,-83.126 -2.6531,5.3059 -2.6531,5.306 -2.653,5.748 -2.2109,5.306 -2.2109,5.748 -1.7687,6.1902 -1.7687,5.7481 -1.7687,6.1903 -1.3266,5.748 -0.8842,6.1902 -1.3266,6.1903 -0.4422,6.1902 -0.8844,6.6324 -0.4421,6.1903 v 6.6323 6.1903 6.1902 l 0.4421,6.6324 0.4422,6.6324 0.8844,6.1902 0.8844,6.6325 1.3264,6.1902 1.3266,6.6325 1.7687,6.1902 1.7687,6.6324 1.7687,6.1902 2.2109,6.1902 2.653,6.1902 2.6531,6.1903 2.653,5.7481 3.0952,6.1902 3.5374,5.7481 3.0954,5.7481 3.9795,5.7481 3.5374,5.3059 3.9796,5.3059 3.9796,5.3059 4.4217,4.8638 3.9795,4.8637 4.864,4.8638 4.4218,4.4216 4.8639,4.4215 4.864,3.9795 4.8638,3.9794 5.3062,3.9795 4.8639,3.5373 5.3061,3.5372 5.7483,3.5374 5.306,3.0951 5.7484,3.0951 5.3061,2.6529 5.7482,2.653 5.7484,2.653 6.1904,2.2107 5.7483,2.2108 5.7482,1.7686 6.1905,1.7688 6.1905,1.3264 5.7482,1.3265 6.1905,1.3264 6.1904,0.8844 6.1905,0.8843 6.1905,0.4422 6.1904,0.4421 z"
       id="path3544" />
    <ellipse
       style="fill:none;stroke:#4c4c4c;stroke-width:0.884335"
       cx="7244.4097"
       cy="4717.395"
       id="circle3546"
       rx="220.64552"
       ry="220.63777" />
    <ellipse
       style="fill:none;stroke:#4c4c4c;stroke-width:0.884335"
       cx="7246.1787"
       cy="4717.395"
       id="circle3548"
       rx="13.707438"
       ry="13.706955" />
    <path
       style="fill:none;stroke:#4c4c4c;stroke-width:0.884335"
       d="m 7204.6141,4687.3284 4.4218,-5.3059 5.3061,-4.8637 5.3062,-3.5374 5.7482,-3.0951 5.7483,-1.7686 6.1904,-1.7687 6.1905,-0.4421 h 6.1905 l 5.7482,0.4421 6.1905,1.3265 5.3061,1.7687 5.3061,2.653 4.864,2.653 3.9795,3.5372 3.5374,3.9794 2.6531,4.4216 129.5574,-81.3574 -3.0952,-4.8637 -3.5375,-4.8638 -3.5374,-4.8637 -3.5374,-4.8638 -3.9796,-4.8638 -3.9796,-4.4215 -4.4217,-4.4217 -4.4217,-4.4216 -4.864,-4.4216 -4.4217,-3.9794 -5.3062,-3.9795 -4.8638,-3.9794 -5.3062,-3.5372 -5.3061,-3.5374 -5.306,-3.5372 -5.7484,-3.0952 -5.7482,-3.0951 -5.7483,-3.0951 -5.7483,-2.6529 -6.1905,-2.653 -5.7482,-2.653 -6.1905,-2.2107 -6.1904,-1.7687 -6.1905,-1.7686 -6.6327,-1.7686 -6.1904,-1.3265 -6.6326,-1.3265 -6.6327,-1.3265 -6.1904,-0.4421 -6.6326,-0.8844 h -6.6327 l -6.6326,-0.4421 -6.6326,0.4421 h -6.6327 l -6.6326,0.8844 -6.6326,0.4421 -6.1905,1.3265 -6.6326,0.8842 -6.1904,1.3265 -6.1906,1.7687 -6.6326,1.7686 -5.7482,2.2109 -6.1905,1.7686 -6.1904,2.653 -5.7483,2.6529 -5.7483,2.653 -5.7483,2.653 -5.306,3.0951 -5.7484,3.0951 -5.3061,3.5373 -5.3061,3.5372 -4.8639,3.5373 -4.864,3.9795 -4.8638,3.9793 -4.864,3.9795 -4.4217,4.4217 -4.4218,4.4215 -4.4218,4.4216 -3.9796,4.8637 -3.9795,4.8638 -3.5374,4.8637 -3.9796,4.8638 -3.0952,4.8637 -3.5374,5.306 129.5573,81.3574"
       id="path3550" />
    <path
       style="fill:none;stroke:#4c4c4c;stroke-width:0.884335"
       d="m 7295.2601,4703.6883 1.3266,5.7481 0.4422,5.7481 v 5.3059 l -0.4422,5.3059 -0.8844,5.306 -1.3266,4.8637 -1.7686,4.8638 -2.2109,4.4216 -3.0952,3.9794 -3.5374,3.9795 -3.5374,3.5372 -4.4218,3.0952 -4.4218,2.6528 -5.306,2.2109 -5.3062,2.2108 -6.1904,1.3265 v 150.3343 l 6.1904,-0.4421 5.7483,-0.4422 6.1905,-0.4422 5.7482,-0.8843 6.1905,-1.3264 5.7483,-0.8844 6.1905,-1.7686 5.7482,-1.3265 6.1905,-1.7686 5.7482,-2.2108 6.1906,-2.2108 5.7482,-2.2108 5.7483,-2.653 5.7482,-2.653 5.7484,-2.6529 5.306,-3.0951 5.7483,-3.0951 5.3061,-3.5373 5.3061,-3.5373 5.3062,-3.9794 5.306,-3.5373 4.864,-4.4216 4.8639,-3.9795 4.864,-4.4215 4.8638,-4.4216 4.4218,-4.8638 4.4218,-4.8637 3.9796,-5.306 3.9795,-4.8638 3.9796,-5.3059 3.5374,-5.7481 3.5374,-5.748 3.5374,-5.7481 3.0952,-6.1903 2.6531,-6.1902 2.6531,-5.748 2.2108,-6.1903 2.2109,-6.6323 2.2109,-6.1903 1.7687,-6.1902 1.3266,-6.1903 1.7686,-6.6324 0.8844,-6.1902 0.8844,-6.1903 0.8842,-6.6323 0.4422,-6.1903 0.4422,-6.1902 v -6.6324 -6.1903 l -0.4422,-6.1902 -0.4422,-6.1903 -0.4422,-6.1902 -0.8842,-6.1903 -0.8844,-6.1902 -1.3266,-6.1903 -1.3264,-5.748 -1.7688,-6.1902 -1.7686,-5.7481 -1.7688,-6.1903 -2.2108,-5.748 -2.2109,-5.306 -2.6531,-5.748 -2.653,-5.7481 -2.6531,-5.3059 -131.3261,78.7044"
       id="path3552" />
    <path
       style="fill:none;stroke:#4c4c4c;stroke-width:0.884335"
       d="m 7236.0086,4768.2437 -5.3061,-1.7687 -4.8639,-2.2107 -4.864,-2.653 -4.4217,-2.653 -3.9796,-3.5373 -3.9796,-3.5372 -3.5374,-3.9795 -2.653,-3.9794 -2.653,-4.4216 -2.211,-4.8638 -1.7686,-4.8637 -0.8844,-4.8638 -0.4422,-5.306 v -5.3058 l 0.8844,-5.3059 1.7686,-5.306 -132.2103,-83.126 -2.6531,5.3059 -2.6531,5.306 -2.653,5.748 -2.2109,5.306 -2.2109,5.748 -1.7687,6.1902 -1.7687,5.7481 -1.7687,6.1903 -1.3266,5.748 -0.8842,6.1902 -1.3266,6.1903 -0.4422,6.1902 -0.8844,6.6324 -0.4421,6.1903 v 6.6323 6.1903 6.1902 l 0.4421,6.6324 0.4422,6.6324 0.8844,6.1902 0.8844,6.6325 1.3264,6.1902 1.3266,6.6325 1.7687,6.1902 1.7687,6.6324 1.7687,6.1902 2.2109,6.1902 2.653,6.1902 2.6531,6.1903 2.653,5.7481 3.0952,6.1902 3.5374,5.7481 3.0954,5.7481 3.9795,5.7481 3.5374,5.3059 3.9796,5.3059 3.9796,5.3059 4.4217,4.8638 3.9795,4.8637 4.864,4.8638 4.4218,4.4216 4.8639,4.4215 4.864,3.9795 4.8638,3.9794 5.3062,3.9795 4.8639,3.5373 5.3061,3.5372 5.7483,3.5374 5.306,3.0951 5.7484,3.0951 5.3061,2.6529 5.7482,2.653 5.7484,2.653 6.1904,2.2107 5.7483,2.2108 5.7482,1.7686 6.1905,1.7688 6.1905,1.3264 5.7482,1.3265 6.1905,1.3264 6.1904,0.8844 6.1905,0.8843 6.1905,0.4422 6.1904,0.4421 v -150.3343"
       id="path3554" />
  </g>
  <g
     id="pulley1">
    <path
       style="fill:#808080;fill-rule:evenodd;stroke-width:0.442167"
       d="m 4041.2535,4501.0641 h 11.0548 l 11.0549,0.8843 11.0548,1.3264 11.0548,1.7686 10.6127,2.6528 10.1704,3.095 10.6127,3.5371 9.7282,3.9793 9.7283,4.4215 9.7282,4.8635 9.286,5.3057 8.844,5.7478 8.8438,6.19 8.4017,6.6321 7.9594,6.6321 7.5173,7.5164 7.5173,7.5163 7.0752,7.9586 6.6328,8.4007 6.1907,8.8428 5.7485,8.8428 5.3063,9.285 4.8642,9.7271 4.4219,9.7271 3.9798,10.1692 3.5374,10.1693 3.0955,10.6113 2.2109,10.6114 2.211,10.6114 1.3266,11.0535 0.8844,11.4957 0.4421,11.0535 -0.4421,11.4956 -0.8844,11.0536 -1.3266,11.0535 -2.211,11.0535 -2.2109,10.6114 -3.0955,10.6114 -3.5374,10.1692 -3.9798,10.1692 -4.4219,9.7271 -4.8642,9.285 -5.3063,9.285 -5.7485,9.2849 -6.1907,8.4007 -6.6328,8.4007 -7.0752,7.9586 -7.5173,7.9585 -7.5173,7.0742 -7.9594,7.0743 -8.4017,6.6321 -8.8438,6.19 -8.844,5.7478 -9.286,5.3057 -9.7282,4.8636 -9.7283,4.4213 -9.7282,3.9793 -10.6127,3.095 -10.1704,3.095 -10.6127,2.6529 -11.0548,1.7685 -11.0548,1.3264 -11.0549,0.8843 -11.0548,0.4421 -11.497,-0.4421 -11.0549,-0.8843 -11.0548,-1.3264 -11.0548,-1.7685 -10.6126,-2.6529 -10.6127,-3.095 -10.1704,-3.095 -10.1705,-3.9793 -9.7282,-4.4213 -9.7283,-4.8636 -9.286,-5.3057 -8.8439,-5.7478 -8.4016,-6.19 -8.4018,-6.6321 -7.9594,-7.0743 -7.9595,-7.0742 -7.0751,-7.9585 -7.0751,-7.9586 -6.6329,-8.4007 -6.1907,-8.4007 -5.7485,-9.2849 -5.3064,-9.285 -4.864,-9.285 -4.422,-9.7271 -3.9798,-10.1692 -3.0953,-10.1692 -3.0953,-10.6114 -2.6532,-10.6114 -1.7688,-11.0535 -1.3265,-11.0535 -0.8844,-11.0536 v -11.4956 -11.0535 l 0.8844,-11.4957 1.3265,-11.0535 1.7688,-10.6114 2.6532,-10.6114 3.0953,-10.6113 3.0953,-10.1693 3.9798,-10.1692 4.422,-9.7271 4.864,-9.7271 5.3064,-9.285 5.7485,-8.8428 6.1907,-8.8428 6.6329,-8.4007 7.0751,-7.9586 7.0751,-7.5163 7.9595,-7.5164 7.9594,-6.6321 8.4018,-6.6321 8.4016,-6.19 8.8439,-5.7478 9.286,-5.3057 9.7283,-4.8635 9.7282,-4.4215 10.1705,-3.9793 10.1704,-3.5371 10.6127,-3.095 10.6126,-2.6528 11.0548,-1.7686 11.0548,-1.3264 11.0549,-0.8843 z m 1.7688,206.9219 h -2.6531 l -2.6533,0.8843 -2.2109,1.3265 -2.2109,1.7685 -1.7689,2.2107 -1.3265,2.2107 -0.8844,2.6528 v 2.6529 2.6529 l 0.8844,2.6528 1.3265,2.2107 1.7689,2.2107 2.2109,1.7685 2.2109,0.8844 2.6533,0.8842 2.6531,0.4422 2.6531,-0.4422 2.6532,-0.8842 2.211,-0.8844 2.2109,-1.7685 1.7688,-2.2107 0.8844,-2.2107 0.8844,-2.6528 0.4422,-2.6529 -0.4422,-2.6529 -0.8844,-2.6528 -0.8844,-2.2107 -1.7688,-2.2107 -2.2109,-1.7685 -2.211,-1.3265 -2.6532,-0.8843 z m -41.5662,-16.3592 4.422,-5.3056 5.3062,-4.8636 5.3064,-3.5372 5.7485,-3.095 5.7485,-1.7685 6.1907,-1.7686 6.1908,-0.4421 h 6.1907 l 5.7484,0.4421 6.1907,1.3265 5.3064,1.7685 5.3063,2.6529 4.8642,2.6529 3.9796,3.5371 3.5376,3.9792 2.6532,4.4214 129.5626,-81.3539 -3.0954,-4.8635 -3.5375,-4.8636 -3.5376,-4.8635 -3.5375,-4.8635 -3.9798,-4.8637 -3.9797,-4.4213 -4.4219,-4.4214 -4.422,-4.4215 -4.8641,-4.4214 -4.4219,-3.9792 -5.3064,-3.9793 -4.864,-3.9793 -5.3064,-3.5371 -5.3063,-3.5372 -5.3063,-3.5371 -5.7486,-3.095 -5.7484,-3.095 -5.7485,-3.0949 -5.7486,-2.6528 -6.1907,-2.6529 -5.7485,-2.6529 -6.1907,-2.2106 -6.1907,-1.7686 -6.1908,-1.7685 -6.6328,-1.7686 -6.1907,-1.3264 -6.6329,-1.3265 -6.6329,-1.3264 -6.1907,-0.4421 -6.6329,-0.8844 h -6.6329 l -6.6329,-0.4421 -6.6329,0.4421 h -6.6329 l -6.6329,0.8844 -6.6329,0.4421 -6.1907,1.3264 -6.6329,0.8842 -6.1907,1.3265 -6.1908,1.7685 -6.6329,1.7686 -5.7484,2.2108 -6.1907,1.7685 -6.1907,2.6529 -5.7485,2.6528 -5.7486,2.6528 -5.7485,2.6529 -5.3063,3.095 -5.7485,3.095 -5.3063,3.5371 -5.3064,3.5371 -4.8641,3.5371 -4.8641,3.9793 -4.8641,3.9792 -4.8642,3.9794 -4.4218,4.4214 -4.422,4.4213 -4.422,4.4215 -3.9797,4.8635 -3.9797,4.8635 -3.5375,4.8636 -3.9798,4.8635 -3.0953,4.8636 -3.5376,5.3057 z m 90.6496,16.3592 1.3266,5.7479 0.4422,5.7478 v 5.3057 l -0.4422,5.3056 -0.8844,5.3058 -1.3266,4.8636 -1.7687,4.8635 -2.211,4.4214 -3.0953,3.9792 -3.5376,3.9794 -3.5375,3.5371 -4.422,3.095 -4.4219,2.6527 -5.3063,2.2108 -5.3064,2.2107 -6.1907,1.3264 v 150.3279 l 6.1907,-0.4421 5.7486,-0.4422 6.1907,-0.4421 5.7485,-0.8843 6.1907,-1.3264 5.7485,-0.8843 6.1907,-1.7686 5.7485,-1.3264 6.1907,-1.7686 5.7485,-2.2106 6.1908,-2.2108 5.7485,-2.2106 5.7484,-2.6529 5.7485,-2.6529 5.7486,-2.6528 5.3063,-3.095 5.7485,-3.095 5.3064,-3.5371 5.3062,-3.5372 5.3064,-3.9792 5.3063,-3.5371 4.8642,-4.4214 4.864,-3.9793 4.8642,-4.4214 4.8641,-4.4214 4.4219,-4.8635 4.422,-4.8636 3.9798,-5.3057 3.9796,-4.8636 3.9798,-5.3056 3.5375,-5.7479 3.5376,-5.7478 3.5375,-5.7479 3.0954,-6.1899 2.6531,-6.19 2.6532,-5.7478 2.211,-6.19 2.2109,-6.6321 2.211,-6.1899 1.7688,-6.19 1.3266,-6.19 1.7687,-6.6321 0.8844,-6.19 0.8844,-6.19 0.8844,-6.6321 0.4422,-6.1899 0.4422,-6.19 v -6.6321 -6.19 l -0.4422,-6.19 -0.4422,-6.19 -0.4423,-6.1899 -0.8843,-6.19 -0.8844,-6.19 -1.3266,-6.19 -1.3265,-5.7478 -1.7688,-6.1899 -1.7688,-5.7479 -1.7688,-6.19 -2.2109,-5.7478 -2.211,-5.3057 -2.6532,-5.7478 -2.6531,-5.7479 -2.6532,-5.3056 z m -59.2538,64.5526 -5.3064,-1.7686 -4.8641,-2.2106 -4.8642,-2.6529 -4.4218,-2.6529 -3.9798,-3.5371 -3.9797,-3.5371 -3.5376,-3.9793 -2.6531,-3.9792 -2.6532,-4.4214 -2.211,-4.8636 -1.7687,-4.8635 -0.8844,-4.8636 -0.4423,-5.3057 v -5.3057 l 0.8845,-5.3056 1.7687,-5.3058 -132.2157,-83.1224 -2.6532,5.3056 -2.6532,5.3058 -2.6532,5.7477 -2.2109,5.3058 -2.211,5.7478 -1.7687,6.1899 -1.7689,5.7479 -1.7687,6.19 -1.3266,5.7478 -0.8843,6.1899 -1.3266,6.19 -0.4423,6.19 -0.8844,6.6321 -0.4421,6.19 v 6.6321 6.19 6.1899 l 0.4421,6.6321 0.4422,6.6321 0.8845,6.19 0.8844,6.6322 1.3265,6.1899 1.3266,6.6322 1.7687,6.19 1.7689,6.6321 1.7687,6.19 2.211,6.1898 2.6532,6.19 2.6531,6.19 2.6531,5.7479 3.0954,6.1899 3.5375,5.7478 3.0955,5.7479 3.9796,5.7479 3.5376,5.3056 3.9797,5.3057 3.9798,5.3057 4.422,4.8636 3.9796,4.8635 4.8642,4.8636 4.422,4.4214 4.864,4.4213 4.8642,3.9793 4.8641,3.9792 5.3063,3.9794 4.8641,3.5371 5.3064,3.5371 5.7485,3.5372 5.3063,3.095 5.7485,3.095 5.3063,2.6527 5.7485,2.6529 5.7486,2.6529 6.1907,2.2107 5.7485,2.2106 5.7484,1.7686 6.1908,1.7686 6.1907,1.3264 5.7485,1.3264 6.1907,1.3264 6.1907,0.8844 6.1907,0.8842 6.1908,0.4422 6.1907,0.4421 z"
       id="path3544-0" />
    <ellipse
       style="fill:none;stroke:#4c4c4c;stroke-width:0.884334"
       cx="4041.2534"
       cy="4721.6924"
       id="circle3546-3"
       rx="220.65443"
       ry="220.6283" />
    <ellipse
       style="fill:none;stroke:#4c4c4c;stroke-width:0.884334"
       cx="4043.0225"
       cy="4721.6924"
       id="circle3548-5"
       rx="13.707992"
       ry="13.706367" />
    <path
       style="fill:none;stroke:#4c4c4c;stroke-width:0.884334"
       d="m 4001.4561,4691.6268 4.422,-5.3056 5.3062,-4.8636 5.3064,-3.5372 5.7485,-3.095 5.7485,-1.7685 6.1907,-1.7686 6.1908,-0.4421 h 6.1907 l 5.7484,0.4421 6.1907,1.3265 5.3064,1.7685 5.3063,2.6529 4.8642,2.6529 3.9796,3.5371 3.5376,3.9792 2.6532,4.4214 129.5626,-81.3539 -3.0954,-4.8635 -3.5375,-4.8636 -3.5376,-4.8635 -3.5375,-4.8635 -3.9798,-4.8637 -3.9797,-4.4213 -4.4219,-4.4214 -4.422,-4.4215 -4.8641,-4.4214 -4.4219,-3.9792 -5.3064,-3.9793 -4.864,-3.9793 -5.3064,-3.5371 -5.3063,-3.5372 -5.3063,-3.5371 -5.7486,-3.095 -5.7484,-3.095 -5.7485,-3.0949 -5.7486,-2.6528 -6.1907,-2.6529 -5.7485,-2.6529 -6.1907,-2.2106 -6.1907,-1.7686 -6.1908,-1.7685 -6.6328,-1.7686 -6.1907,-1.3264 -6.6329,-1.3265 -6.6329,-1.3264 -6.1907,-0.4421 -6.6329,-0.8844 h -6.6329 l -6.6329,-0.4421 -6.6329,0.4421 h -6.6329 l -6.6329,0.8844 -6.6329,0.4421 -6.1907,1.3264 -6.6329,0.8842 -6.1907,1.3265 -6.1908,1.7685 -6.6329,1.7686 -5.7484,2.2108 -6.1907,1.7685 -6.1907,2.6529 -5.7485,2.6528 -5.7486,2.6528 -5.7485,2.6529 -5.3063,3.095 -5.7485,3.095 -5.3063,3.5371 -5.3064,3.5371 -4.8641,3.5371 -4.8641,3.9793 -4.8641,3.9792 -4.8642,3.9794 -4.4218,4.4214 -4.422,4.4213 -4.422,4.4215 -3.9797,4.8635 -3.9797,4.8635 -3.5375,4.8636 -3.9798,4.8635 -3.0953,4.8636 -3.5376,5.3057 129.5626,81.3539"
       id="path3550-4" />
    <path
       style="fill:none;stroke:#4c4c4c;stroke-width:0.884334"
       d="m 4092.1057,4707.986 1.3266,5.7479 0.4422,5.7478 v 5.3057 l -0.4422,5.3056 -0.8844,5.3058 -1.3266,4.8636 -1.7687,4.8635 -2.211,4.4214 -3.0953,3.9792 -3.5376,3.9794 -3.5375,3.5371 -4.422,3.095 -4.4219,2.6527 -5.3063,2.2108 -5.3064,2.2107 -6.1907,1.3264 v 150.3279 l 6.1907,-0.4421 5.7486,-0.4422 6.1907,-0.4421 5.7485,-0.8843 6.1907,-1.3264 5.7485,-0.8843 6.1907,-1.7686 5.7485,-1.3264 6.1907,-1.7686 5.7485,-2.2106 6.1908,-2.2108 5.7485,-2.2106 5.7484,-2.6529 5.7485,-2.6529 5.7486,-2.6528 5.3063,-3.095 5.7485,-3.095 5.3064,-3.5371 5.3062,-3.5372 5.3064,-3.9792 5.3063,-3.5371 4.8642,-4.4214 4.864,-3.9793 4.8642,-4.4214 4.8641,-4.4214 4.4219,-4.8635 4.422,-4.8636 3.9798,-5.3057 3.9796,-4.8636 3.9798,-5.3056 3.5375,-5.7479 3.5376,-5.7478 3.5375,-5.7479 3.0954,-6.1899 2.6531,-6.19 2.6532,-5.7478 2.211,-6.19 2.2109,-6.6321 2.211,-6.1899 1.7688,-6.19 1.3266,-6.19 1.7687,-6.6321 0.8844,-6.19 0.8844,-6.19 0.8844,-6.6321 0.4422,-6.1899 0.4422,-6.19 v -6.6321 -6.19 l -0.4422,-6.19 -0.4422,-6.19 -0.4423,-6.1899 -0.8843,-6.19 -0.8844,-6.19 -1.3266,-6.19 -1.3265,-5.7478 -1.7688,-6.1899 -1.7688,-5.7479 -1.7688,-6.19 -2.2109,-5.7478 -2.211,-5.3057 -2.6532,-5.7478 -2.6531,-5.7479 -2.6532,-5.3056 -131.3314,78.701"
       id="path3552-2" />
    <path
       style="fill:none;stroke:#4c4c4c;stroke-width:0.884334"
       d="m 4032.8519,4772.5386 -5.3064,-1.7686 -4.8641,-2.2106 -4.8642,-2.6529 -4.4218,-2.6529 -3.9798,-3.5371 -3.9797,-3.5371 -3.5376,-3.9793 -2.6531,-3.9792 -2.6532,-4.4214 -2.211,-4.8636 -1.7687,-4.8635 -0.8844,-4.8636 -0.4423,-5.3057 v -5.3057 l 0.8845,-5.3056 1.7687,-5.3058 -132.2157,-83.1224 -2.6532,5.3056 -2.6532,5.3058 -2.6532,5.7477 -2.2109,5.3058 -2.211,5.7478 -1.7687,6.1899 -1.7689,5.7479 -1.7687,6.19 -1.3266,5.7478 -0.8843,6.1899 -1.3266,6.19 -0.4423,6.19 -0.8844,6.6321 -0.4421,6.19 v 6.6321 6.19 6.1899 l 0.4421,6.6321 0.4422,6.6321 0.8845,6.19 0.8844,6.6322 1.3265,6.1899 1.3266,6.6322 1.7687,6.19 1.7689,6.6321 1.7687,6.19 2.211,6.1898 2.6532,6.19 2.6531,6.19 2.6531,5.7479 3.0954,6.1899 3.5375,5.7478 3.0955,5.7479 3.9796,5.7479 3.5376,5.3056 3.9797,5.3057 3.9798,5.3057 4.422,4.8636 3.9796,4.8635 4.8642,4.8636 4.422,4.4214 4.864,4.4213 4.8642,3.9793 4.8641,3.9792 5.3063,3.9794 4.8641,3.5371 5.3064,3.5371 5.7485,3.5372 5.3063,3.095 5.7485,3.095 5.3063,2.6527 5.7485,2.6529 5.7486,2.6529 6.1907,2.2107 5.7485,2.2106 5.7484,1.7686 6.1908,1.7686 6.1907,1.3264 5.7485,1.3264 6.1907,1.3264 6.1907,0.8844 6.1907,0.8842 6.1908,0.4422 6.1907,0.4421 v -150.3279"
       id="path3554-3" />
  </g>
</svg>
